<svg id="Capa_1" enable-background="new 0 0 512 512" height="512" viewBox="0 0 512 512" width="512" xmlns="http://www.w3.org/2000/svg"><g><g><path d="m76.142 49.322c1.692 17.993 8.216 35.194 18.882 49.784l10.529 14.402c3.377 4.619 10.169 4.677 13.756.219 4.409-5.479 9.569-10.358 15.338-14.443l3.211-2.274c15.589-11.037 32.846-18.913 51.041-23.395 7.441-1.833 9.048-11.675 2.533-15.71l-88.71-54.953c-6.966-4.315-15.877-3.864-22.372 1.132-4.912 3.778-7.539 9.813-6.959 15.983z" fill="#f9c6da"/></g><g><path d="m435.858 49.321c-1.692 17.993-8.216 35.195-18.882 49.784l-10.529 14.402c-3.377 4.619-10.169 4.677-13.756.219-4.409-5.479-9.569-10.358-15.338-14.443l-3.211-2.274c-15.589-11.037-32.846-18.913-51.041-23.395-7.441-1.833-9.048-11.675-2.533-15.71l88.71-54.953c6.966-4.315 15.877-3.864 22.372 1.132 4.912 3.778 7.539 9.813 6.959 15.983z" fill="#f9c6da"/></g><g><path d="m6.886 248.508c25.077 25.077 59.09 39.166 94.554 39.166h6.615c19.511 0 35.328-15.817 35.328-35.328 0-16.026 10.787-30.045 26.279-34.149l18.482-4.897c25.951-6.877 44.023-30.36 44.023-57.207v-2.713c0-17.26 4.017-34.282 11.734-49.721l8.881-17.769c1.652-3.305 6.368-3.305 8.02 0l8.881 17.769c7.716 15.439 11.734 32.461 11.734 49.721v2.713c0 26.847 18.071 50.33 44.023 57.207l18.482 4.897c15.491 4.105 26.279 18.123 26.279 34.149 0 19.511 15.817 35.328 35.328 35.328h6.615c35.19 0 68.95-13.871 93.97-38.585l-14.491-27.206c-12.707-23.857-28.417-45.99-46.745-65.858-6.433-6.973-11.219-15.301-14.006-24.369-3.394-11.045-8.611-21.355-15.366-30.539l-9.058 12.391c-3.377 4.619-10.169 4.677-13.756.219-4.409-5.478-9.569-10.358-15.338-14.443l-3.211-2.274c-15.589-11.037-32.846-18.913-51.041-23.395-7.441-1.833-9.048-11.675-2.532-15.71l13.094-8.112c-15.16-4.162-30.895-6.307-46.8-6.307h-61.725c-15.905 0-31.64 2.146-46.801 6.307l13.094 8.112c6.515 4.036 4.909 13.877-2.532 15.71-18.194 4.482-35.452 12.358-51.041 23.395l-3.211 2.274c-5.77 4.085-10.929 8.964-15.338 14.443-3.588 4.458-10.379 4.401-13.756-.219l-9.058-12.391c-6.755 9.184-11.972 19.494-15.367 30.539-2.787 9.069-7.573 17.396-14.006 24.369-18.328 19.868-34.037 42-46.745 65.858l-13.817 25.94z" fill="#ceb1a5"/></g><g><path d="m506.114 249.089c-25.02 24.714-58.78 38.585-93.97 38.585h-6.615c-19.511 0-35.328-15.817-35.328-35.328 0-16.026-10.787-30.044-26.279-34.149l-18.482-4.897c-25.951-6.877-44.023-30.36-44.023-57.207v-2.713c0-17.26-4.017-34.283-11.734-49.722l-8.881-17.769c-1.652-3.305-6.368-3.305-8.02 0l-8.881 17.769c-7.717 15.439-11.734 32.462-11.734 49.721v2.713c0 26.847-18.071 50.331-44.023 57.207l-18.482 4.897c-15.491 4.105-26.279 18.123-26.279 34.149 0 19.511-15.817 35.328-35.328 35.328h-6.615c-35.465 0-69.477-14.088-94.554-39.166l-.326-.686-.674 1.266c-3.865 7.258-5.886 15.353-5.886 23.574v233.082c0 3.455 2.802 6.257 6.258 6.257h499.485c3.456 0 6.258-2.802 6.258-6.258v-233.081c-.001-8.221-2.022-16.316-5.887-23.572z" fill="#f1f1f4"/></g><path d="m285.717 290.782-21.199-14.198v-18.374c0-4.267-3.459-7.726-7.726-7.726s-7.726 3.459-7.726 7.726v18.374l-21.198 14.198c-3.545 2.375-4.494 7.174-2.12 10.719 1.491 2.225 3.936 3.428 6.427 3.428 1.478 0 2.973-.424 4.293-1.308l20.325-13.614 20.326 13.614c1.321.884 2.815 1.308 4.293 1.308 2.491 0 4.937-1.203 6.427-3.428 2.372-3.546 1.424-8.345-2.122-10.719z" fill="#dfdde2"/><g><path d="m506.114 249.089c-10.431 10.304-22.381 18.722-35.321 25.037v101.748c0 63.802-51.721 115.523-115.523 115.523h-355.27v14.346c0 3.455 2.802 6.257 6.258 6.257h499.485c3.456 0 6.258-2.802 6.258-6.258v-233.081c-.001-8.221-2.022-16.316-5.887-23.572z" fill="#dfdde2"/></g><g><path d="m389.665 111.052c2.764 8.994 7.494 17.259 13.847 24.196 17.456 19.064 32.951 39.835 45.103 62.65l16.292 30.587c3.865 7.256 5.886 15.351 5.886 23.572v22.068c12.94-6.315 24.89-14.733 35.321-25.037l-16.292-30.587c-12.152-22.814-27.647-43.586-45.103-62.65-6.353-6.938-11.083-15.203-13.847-24.196-3.394-11.045-8.611-21.355-15.366-30.539l-9.058 12.391c-3.369 4.608-10.157 4.695-13.734.246-1.107-1.377-2.262-2.717-3.462-4.015.14.437.278.875.413 1.314z" fill="#c19d8e"/></g><g><path d="m275.347 43.485c-.505 4.052 1.866 8.373 6.547 9.526 12.036 2.965 23.661 7.415 34.665 13.283-.399-3.112.851-6.433 4.01-8.39l13.094-8.112c-15.16-4.162-30.895-6.307-46.8-6.307z" fill="#c19d8e"/></g><g><path d="m254.189 264.061-21.247-19.413c-1.07-.978-1.026-2.677.093-3.598 13.802-11.357 33.711-11.357 47.513 0 1.119.921 1.163 2.62.093 3.598l-21.247 19.413c-1.473 1.347-3.731 1.347-5.205 0z" fill="#ffbee4"/></g><g><path d="m440.342 266.433c-.176 0-.352-.006-.529-.018l-128.958-8.719c-4.258-.288-7.476-3.972-7.188-8.23.289-4.258 3.99-7.476 8.23-7.188l128.958 8.719c4.258.288 7.476 3.972 7.188 8.23-.276 4.08-3.672 7.206-7.701 7.206z" fill="#fff"/></g><g><path d="m412.008 344.855c-1.273 0-2.562-.315-3.753-.978l-105.887-58.98c-3.728-2.076-5.066-6.782-2.99-10.51 2.075-3.728 6.784-5.066 10.509-2.99l105.887 58.98c3.728 2.076 5.066 6.782 2.99 10.51-1.412 2.538-4.044 3.968-6.756 3.968z" fill="#fff"/></g><g><path d="m73.242 266.433c-4.029 0-7.425-3.125-7.701-7.206-.288-4.258 2.931-7.942 7.188-8.23l128.958-8.719c4.26-.283 7.942 2.93 8.23 7.188s-2.931 7.942-7.188 8.23l-128.958 8.719c-.176.012-.353.018-.529.018z" fill="#fff"/></g><g><path d="m101.575 344.855c-2.712 0-5.343-1.431-6.757-3.968-2.076-3.728-.738-8.433 2.99-10.51l105.888-58.98c3.73-2.076 8.433-.737 10.509 2.99 2.076 3.728.738 8.433-2.99 10.51l-105.888 58.98c-1.189.663-2.48.978-3.752.978z" fill="#fff"/></g><g><path d="m60.449 451.159c-2.998 0-5.85-1.755-7.106-4.684-1.681-3.922.136-8.464 4.057-10.146l25.197-10.801c37.793-16.2 71.942-41.241 98.754-72.418 2.783-3.237 7.661-3.602 10.896-.82 3.235 2.783 3.603 7.661.82 10.896-28.34 32.953-64.435 59.422-104.381 76.545l-25.197 10.801c-.993.425-2.025.627-3.04.627z" fill="#dfdde2"/></g><g><path d="m155.051 489.343c-2.254 0-4.488-.981-6.014-2.87-2.682-3.319-2.166-8.184 1.153-10.866l17.083-13.806c25.444-20.561 46.187-47.107 59.989-76.766 1.801-3.869 6.397-5.545 10.265-3.745 3.869 1.8 5.546 6.396 3.745 10.265-14.791 31.785-37.02 60.231-64.287 82.266l-17.083 13.806c-1.429 1.153-3.145 1.716-4.851 1.716z" fill="#dfdde2"/></g><g><path d="m355.308 489.343c-1.705 0-3.422-.562-4.851-1.717l-17.085-13.806c-27.266-22.034-49.495-50.481-64.287-82.265-1.801-3.869-.124-8.465 3.745-10.265 3.868-1.8 8.464-.123 10.265 3.745 13.803 29.66 34.546 56.205 59.989 76.766l17.085 13.806c3.319 2.682 3.835 7.547 1.153 10.866-1.526 1.888-3.761 2.87-6.014 2.87z" fill="#dfdde2"/></g><g><path d="m448.88 451.159c-1.015 0-2.047-.201-3.04-.627l-25.197-10.801c-39.948-17.124-76.042-43.593-104.381-76.545-2.783-3.235-2.415-8.114.82-10.896s8.114-2.416 10.896.82c26.811 31.176 60.959 56.217 98.754 72.418l25.197 10.801c3.922 1.682 5.738 6.224 4.057 10.146-1.256 2.929-4.108 4.684-7.106 4.684z" fill="#dfdde2"/></g><path d="m445.84 450.532c.993.426 2.025.627 3.04.627 2.998 0 5.85-1.755 7.106-4.684 1.475-3.442.256-7.362-2.715-9.406-2.782 4.447-5.859 8.69-9.203 12.704z" fill="#c6c1c8"/><g><path d="m256.792 344.854c-34.585 0-54.071-19.7-54.883-20.539-2.97-3.065-2.892-7.956.172-10.926 3.065-2.97 7.958-2.891 10.925.172.614.619 16.005 15.84 43.787 15.84 28.114 0 43.634-15.681 43.788-15.84 2.969-3.065 7.861-3.142 10.925-.172 3.064 2.969 3.142 7.861.172 10.926-.814.838-20.301 20.539-54.886 20.539z" fill="#dfdde2"/></g><g><path d="m282.081 207.6c-4.268 0-7.726-3.459-7.726-7.726v-4.757c0-9.512 6.418-17.875 15.606-20.336l44.703-11.978c4.122-1.103 8.359 1.342 9.463 5.464 1.105 4.122-1.341 8.358-5.463 9.463l-44.704 11.978c-2.445.654-4.152 2.879-4.152 5.409v4.757c0 4.267-3.459 7.726-7.727 7.726z" fill="#845c47"/></g><g><path d="m238.079 207.6c-4.268 0-7.726-3.459-7.726-7.726v-4.757c0-2.53-1.706-4.755-4.151-5.409l-44.705-11.978c-4.122-1.105-6.567-5.341-5.463-9.463s5.339-6.567 9.463-5.464l44.705 11.978c9.187 2.462 15.604 10.824 15.604 20.336v4.757c0 4.267-3.459 7.726-7.727 7.726z" fill="#845c47"/></g><g><path d="m389.017 83.717c-1.543 0-3.102-.461-4.458-1.421-7.572-5.361-15.59-10.115-23.827-14.128-2.53-1.232-4.19-3.743-4.332-6.555-.143-2.811 1.255-5.477 3.648-6.959l47.522-29.438c3.627-2.246 8.39-1.127 10.637 2.499 2.246 3.628 1.128 8.39-2.5 10.637l-36.127 22.38c4.755 2.772 9.404 5.764 13.908 8.952 3.482 2.465 4.307 7.287 1.841 10.77-1.505 2.127-3.889 3.263-6.312 3.263z" fill="#efa5c3"/></g><g><path d="m122.984 83.716c-2.423 0-4.807-1.135-6.313-3.263-2.466-3.482-1.641-8.305 1.841-10.77 4.504-3.188 9.152-6.18 13.906-8.951l-36.125-22.379c-3.628-2.247-4.746-7.01-2.5-10.637 2.248-3.628 7.012-4.745 10.637-2.499l47.521 29.438c2.393 1.482 3.791 4.148 3.648 6.959-.142 2.811-1.802 5.322-4.332 6.555-8.237 4.013-16.253 8.766-23.825 14.127-1.356.959-2.915 1.42-4.458 1.42z" fill="#efa5c3"/></g></g></svg>